<?xml version="1.0" encoding="iso-8859-1"?>
<!-- Generator: Adobe Illustrator 16.0.0, SVG Export Plug-In . SVG Version: 6.00 Build 0)  -->
<!DOCTYPE svg PUBLIC "-//W3C//DTD SVG 1.1//EN" "http://www.w3.org/Graphics/SVG/1.1/DTD/svg11.dtd">
<svg xmlns="http://www.w3.org/2000/svg" xmlns:xlink="http://www.w3.org/1999/xlink" version="1.1" id="Capa_1" x="0px" y="0px" width="512px" height="512px" viewBox="0 0 298.312 298.312" style="enable-background:new 0 0 298.312 298.312;" xml:space="preserve">
<g>
	<g id="_x33_43._Playlist">
		<g>
			<path d="M49.489,46.638l-36.177-22.61C5.957,19.429,0,22.733,0,31.395v47.104c0,8.67,5.957,11.974,13.312,7.382l36.177-22.608     C56.845,58.68,56.845,51.222,49.489,46.638z M282.611,31.395H94.204c-8.674,0-15.701,7.039-15.701,15.701v15.701     c0,8.67,7.027,15.701,15.701,15.701h188.407c8.664,0,15.701-7.031,15.701-15.701V47.096     C298.312,38.434,291.292,31.395,282.611,31.395z M13.312,180.093l36.177-22.61c7.356-4.597,7.027-11.467-0.731-15.347     L14.044,124.78C6.285,120.901,0,124.789,0,133.451v39.253C0,181.379,5.957,184.677,13.312,180.093z M282.611,125.6H94.204     c-8.674,0-15.701,7.039-15.701,15.701v15.701c0,8.672,7.027,15.701,15.701,15.701h188.407c8.664,0,15.701-7.029,15.701-15.701     v-15.701C298.312,132.639,291.292,125.6,282.611,125.6z M49.489,235.046l-36.177-22.609C5.957,207.836,0,211.142,0,219.806v47.1     c0,8.672,5.957,11.974,13.312,7.386l36.177-22.61C56.845,247.097,56.845,239.639,49.489,235.046z M282.611,219.806H94.204     c-8.674,0-15.701,7.037-15.701,15.697v15.701c0,8.672,7.027,15.701,15.701,15.701h188.407c8.664,0,15.701-7.029,15.701-15.701     v-15.701C298.312,226.843,291.292,219.806,282.611,219.806z" fill="#004fb0"/>
		</g>
	</g>
</g>
<g>
</g>
<g>
</g>
<g>
</g>
<g>
</g>
<g>
</g>
<g>
</g>
<g>
</g>
<g>
</g>
<g>
</g>
<g>
</g>
<g>
</g>
<g>
</g>
<g>
</g>
<g>
</g>
<g>
</g>
</svg>
